<?xml version="1.0" standalone="no"?>
<!DOCTYPE svg PUBLIC "-//W3C//DTD SVG 20010904//EN"
 "http://www.w3.org/TR/2001/REC-SVG-20010904/DTD/svg10.dtd">
<svg version="1.0" xmlns="http://www.w3.org/2000/svg"
 width="800.000000pt" height="800.000000pt" viewBox="0 0 800.000000 800.000000"
 preserveAspectRatio="xMidYMid meet">

<g transform="translate(0.000000,800.000000) scale(0.100000,-0.100000)"
fill="#000000" stroke="none">
<path d="M3645 7394 c-110 -24 -191 -68 -274 -148 -77 -75 -206 -240 -306
-392 -58 -90 -61 -92 -110 -103 -50 -11 -175 -65 -175 -75 0 -3 22 3 49 14 97
38 214 53 371 47 311 -12 594 -93 945 -271 158 -81 292 -163 281 -173 -3 -3
-59 -5 -126 -4 -221 2 -347 43 -550 178 -148 100 -272 162 -395 199 -81 25
-106 28 -245 28 -176 1 -222 -9 -350 -75 -240 -124 -291 -303 -99 -349 46 -11
148 -10 264 3 18 2 20 -4 20 -58 0 -47 -7 -74 -32 -125 -47 -95 -63 -169 -63
-288 0 -117 17 -211 65 -362 50 -152 66 -231 75 -357 6 -94 12 -119 34 -156
31 -55 102 -118 163 -148 24 -12 41 -25 36 -28 -4 -4 -28 -23 -53 -41 -97 -73
-245 -207 -280 -255 -34 -45 -39 -58 -45 -132 -7 -77 -9 -83 -30 -83 -30 0
-84 -19 -122 -44 -106 -70 -327 -250 -448 -365 -156 -149 -184 -192 -226 -348
l-22 -82 -306 -183 c-239 -142 -318 -195 -363 -239 -158 -161 -177 -406 -51
-668 42 -89 166 -220 255 -270 160 -90 325 -90 503 -1 70 36 76 37 46 13 -53
-44 -149 -101 -210 -124 -83 -33 -227 -38 -306 -11 -33 11 -61 19 -64 17 -5
-6 120 -192 178 -265 78 -98 244 -262 354 -351 491 -397 1250 -711 2107 -873
372 -70 479 -79 618 -50 201 41 349 161 520 423 118 180 162 328 162 541 l0
120 45 0 c40 0 50 5 89 44 127 127 254 550 388 1296 29 164 32 448 5 583 -38
191 -96 311 -210 433 l-69 74 46 -21 c273 -120 613 -72 962 138 218 132 513
398 680 615 l45 57 -61 213 c-34 117 -65 217 -70 222 -7 7 -176 -52 -669 -235
-101 -38 -198 -69 -216 -69 -183 0 -400 511 -309 729 29 71 35 73 483 222 234
78 429 145 433 148 7 7 -93 380 -110 410 -10 18 -100 43 -290 81 -240 48 -408
63 -642 57 -244 -5 -307 -19 -475 -101 -303 -149 -462 -390 -570 -866 -39
-171 -116 -349 -175 -405 l-30 -29 0 40 c0 50 -30 114 -64 142 -15 11 -47 28
-72 38 -42 16 -44 19 -44 55 0 39 0 39 41 39 120 0 203 60 269 193 42 86 70
190 70 268 0 54 -24 142 -44 158 -12 10 -12 19 0 59 29 93 46 281 41 422 -10
253 -72 408 -229 576 -153 163 -357 276 -580 319 -121 24 -374 29 -463 9z
m415 -104 c146 -31 187 -49 277 -121 172 -137 231 -207 277 -331 56 -148 58
-378 5 -581 l-10 -38 -62 54 c-96 83 -135 110 -237 169 -364 210 -770 342
-1047 342 -68 -1 -123 1 -123 4 0 11 117 180 172 248 77 96 186 195 251 228
29 14 84 30 122 35 85 12 300 7 375 -9z m-488 -1006 c76 -14 135 -30 132 -35
-3 -5 -19 -9 -35 -9 -18 0 -39 -9 -54 -24 -32 -32 -110 -197 -129 -271 l-15
-60 25 30 c14 17 40 61 58 98 32 65 34 67 41 40 14 -57 59 -80 91 -48 21 20
111 20 214 -1 45 -9 83 -14 86 -11 12 12 -30 65 -75 95 -25 17 -73 38 -106 46
-44 11 -52 15 -29 15 46 1 171 -33 249 -68 37 -17 69 -31 72 -31 6 0 -9 54
-24 84 -14 27 -14 29 4 24 169 -44 263 -75 263 -86 0 -7 16 -28 35 -46 38 -37
41 -49 25 -142 -23 -136 -24 -124 9 -124 47 0 59 9 96 70 33 54 41 61 108 88
103 43 137 48 167 24 22 -18 24 -27 23 -93 -1 -89 -34 -192 -86 -271 -49 -73
-83 -88 -197 -88 l-90 0 -58 -123 c-69 -145 -116 -221 -180 -289 -62 -67 -106
-90 -242 -131 -211 -64 -379 -80 -568 -57 -110 14 -183 42 -221 86 -28 31 -31
41 -31 100 0 53 -11 99 -54 232 -129 394 -148 590 -71 739 8 15 20 52 27 81 9
44 18 58 47 78 44 30 118 32 176 5 l40 -18 -66 5 c-78 5 -131 -9 -159 -45 -11
-14 -20 -29 -20 -33 0 -4 35 -13 78 -20 95 -15 111 -23 107 -52 -2 -13 -24
-72 -48 -133 -25 -60 -48 -126 -52 -145 -5 -24 -17 -41 -38 -55 -17 -11 -37
-31 -45 -45 -17 -33 -9 -158 15 -227 l18 -52 0 112 c1 94 4 120 23 161 25 54
33 52 50 -10 20 -68 23 -69 195 -56 183 14 217 23 259 67 l33 34 70 -57 c39
-32 78 -73 87 -92 22 -43 23 -123 3 -205 -18 -75 -18 -86 0 -55 30 51 55 153
55 220 0 86 -13 103 -141 185 -53 35 -101 69 -105 77 -6 9 -11 0 -14 -27 -6
-50 -39 -65 -99 -45 -28 9 -67 11 -133 6 -90 -6 -94 -6 -120 19 -16 14 -28 33
-28 41 0 8 43 99 97 202 126 244 128 281 18 334 l-40 19 70 -5 c39 -3 132 -17
207 -32z m2873 -98 c218 -38 250 -47 250 -70 0 -17 -49 -36 -325 -130 -179
-61 -342 -121 -361 -134 -195 -121 -249 -410 -139 -743 115 -346 310 -539 547
-539 60 0 96 11 381 116 317 117 331 120 332 78 0 -33 -225 -259 -385 -386
-258 -204 -532 -313 -735 -292 -239 25 -420 182 -574 497 -87 180 -152 390
-177 577 -7 47 -15 91 -19 98 -11 22 -49 -125 -62 -240 -14 -129 -2 -272 37
-416 14 -51 25 -97 25 -102 0 -5 -17 -17 -38 -27 -96 -46 -205 -114 -419 -265
-268 -188 -558 -390 -714 -498 -60 -41 -156 -108 -214 -148 l-104 -73 -32 63
c-67 132 -175 294 -245 366 l-70 73 70 43 c1181 719 1475 902 1503 934 18 20
51 73 73 117 38 76 64 151 180 525 76 243 113 315 207 409 105 104 231 168
383 195 14 2 126 3 250 1 188 -2 249 -7 375 -29z m-2024 -1055 l10 -64 -43
-39 c-83 -73 -334 -275 -523 -419 -276 -211 -466 -353 -497 -374 l-28 -17 0
186 0 186 64 0 c190 0 431 75 593 184 129 87 263 251 364 446 l44 85 3 -55 c1
-30 7 -84 13 -119z m-1437 -1056 c121 -37 240 -87 270 -113 76 -68 346 -563
346 -634 0 -16 -18 -66 -39 -111 -82 -170 -155 -278 -553 -810 -48 -65 -88
-120 -88 -122 0 -13 58 -2 115 20 l63 26 53 -32 c79 -46 276 -144 533 -263
323 -151 632 -323 792 -443 175 -130 215 -224 180 -429 -20 -114 -42 -170 -92
-231 -71 -87 -235 -182 -381 -222 l-72 -19 -78 38 c-78 38 -78 38 -228 42
-142 4 -155 6 -241 39 -189 73 -377 204 -596 417 -338 329 -537 645 -594 941
-8 41 -13 76 -10 78 2 2 39 5 82 6 57 2 88 8 112 22 17 11 32 22 32 26 0 3
-19 14 -42 25 -61 27 -170 141 -203 211 -27 55 -27 62 -21 163 16 262 56 399
129 440 25 14 30 13 68 -7 l41 -22 -7 42 c-4 23 -11 69 -16 103 l-11 61 -108
77 c-60 42 -112 76 -116 76 -3 0 -33 -27 -65 -61 -33 -33 -66 -58 -72 -56 -28
10 5 156 51 225 57 85 102 93 215 40 92 -44 160 -88 266 -172 112 -88 122 -88
72 0 -35 60 -143 162 -216 204 -29 16 -83 41 -121 56 -38 14 -73 29 -77 33
-12 12 40 49 86 62 29 8 53 7 88 -1 79 -19 275 -146 409 -265 28 -25 53 -45
56 -45 7 0 -25 60 -66 120 -70 103 -178 182 -344 251 l-79 33 32 27 c18 15 48
35 67 45 33 18 37 18 102 1 140 -36 239 -101 462 -306 44 -40 80 -70 80 -66 0
23 -144 220 -206 281 -61 61 -85 77 -163 109 -50 21 -102 48 -116 61 -25 23
-32 53 -17 68 13 14 122 -4 236 -39z m2118 -20 c57 -20 103 -64 121 -118 11
-34 19 -43 48 -50 121 -29 251 -100 321 -173 131 -138 194 -378 169 -644 -12
-124 -67 -464 -102 -625 -53 -246 -155 -529 -254 -705 l-31 -55 -50 1 c-27 1
-80 11 -119 22 -38 12 -70 20 -71 19 -1 -1 7 -36 18 -77 40 -154 34 -360 -16
-527 -58 -192 -121 -269 -263 -319 -37 -13 -79 -24 -93 -24 -23 0 -21 3 22 48
159 163 199 400 103 599 -57 116 -177 210 -511 400 l-151 86 24 23 c39 39 30
67 -41 137 -69 69 -92 117 -81 173 10 53 77 254 130 389 66 169 209 456 304
613 83 138 185 331 178 338 -2 2 -42 -20 -90 -50 -353 -222 -546 -486 -670
-918 -18 -65 -37 -121 -42 -125 -4 -5 -5 69 -2 162 6 189 27 299 91 482 20 56
36 107 36 113 0 20 -42 9 -139 -35 -93 -43 -121 -52 -121 -39 0 11 79 120 101
140 13 12 177 129 364 260 306 215 421 296 634 446 74 52 107 58 183 33z
m-3012 -933 c43 -42 70 -117 70 -191 0 -25 -10 -109 -21 -186 -30 -196 -30
-270 -1 -317 l23 -38 -114 -75 c-133 -87 -180 -106 -261 -106 -183 0 -357 208
-357 426 0 77 28 148 77 196 31 30 517 327 538 328 4 1 25 -16 46 -37z"/>
<path d="M4603 5870 c-47 -28 -56 -50 -38 -101 15 -40 14 -44 -11 -86 -32 -56
-22 -69 18 -23 44 52 61 95 47 122 -10 18 -8 24 11 40 12 10 35 18 51 18 40 0
53 -29 45 -104 l-6 -61 25 45 c32 60 33 119 2 148 -30 29 -99 30 -144 2z"/>
<path d="M3157 5492 c7 -84 22 -115 70 -137 57 -27 182 -41 258 -28 117 20
231 89 253 152 l10 29 -131 8 c-73 4 -163 8 -202 9 -38 1 -95 6 -125 12 -30 6
-74 14 -96 17 l-42 6 5 -68z m168 3 c55 -8 165 -15 244 -15 129 0 142 -2 130
-16 -38 -45 -185 -94 -286 -94 -140 0 -213 36 -213 105 0 40 -8 39 125 20z"/>
<path d="M3220 5267 c0 -43 173 -73 268 -48 79 22 52 34 -98 46 -41 3 -96 8
-122 11 -40 6 -48 4 -48 -9z"/>
<path d="M3330 3352 c-14 -9 -41 -32 -60 -51 -34 -33 -36 -33 -106 -28 -94 7
-135 -11 -191 -85 -40 -53 -43 -55 -108 -66 -106 -17 -140 -52 -152 -155 l-6
-52 24 34 c28 41 97 78 159 86 90 12 129 33 166 90 l35 53 95 17 c121 22 155
48 194 150 8 21 7 25 -8 25 -9 0 -28 -8 -42 -18z"/>
<path d="M2697 1694 c12 -17 89 -96 170 -175 304 -295 601 -521 771 -588 58
-23 212 -44 281 -39 44 3 44 3 -70 47 -63 24 -141 56 -174 71 -74 34 -324 209
-685 479 -151 113 -284 213 -294 221 -19 13 -19 12 1 -16z"/>
<path d="M4021 818 c66 -55 135 -59 219 -10 52 31 55 30 -119 35 l-135 4 35
-29z"/>
<path d="M1730 2718 c-50 -27 -90 -90 -90 -144 0 -46 40 -114 80 -135 42 -23
120 -25 160 -4 48 25 80 81 80 141 0 123 -122 199 -230 142z"/>
</g>
</svg>
